<svg xmlns="http://www.w3.org/2000/svg" xmlns:xlink="http://www.w3.org/1999/xlink" viewBox="0 0 372 75.37">
<defs>
<style>
.flag{fill:url(#flagGradient);}
.text{fill:#fff;font-family:'Arial Black',Arial,sans-serif;font-weight:900;font-size:28px;letter-spacing:1px;}
.line1{fill:url(#line1Gradient);}
.line2{fill:url(#line2Gradient);}
.uuid-09bc8e88-163e-4354-843a-d76ed2197a88{fill:none;}.uuid-a2b41b54-fdd5-4f5d-a042-19ac33232cf8{fill:#cdbcc9;}.uuid-f399c445-1ba0-48a4-9dad-8ad73100b139{fill:#f3eef4;}.uuid-0594d1ab-fe0d-4b2a-984f-05721679151e{fill:#80174d;}.uuid-7d9ed2ad-8880-4645-b109-c3a633b088ac{clip-path:url(#uuid-31b3651b-092e-4e2f-8b94-94e18bbd735b);}.uuid-a3239b12-2633-4d83-9a83-163b83dd65fd{fill:#978595;}.uuid-204bb702-817c-4097-918c-e32465752a18{fill:#931e4d;}.uuid-d87f1a7b-69fa-4793-96d5-183daf7d3443{fill:#963074;}.uuid-c97b5954-5211-4868-b90b-25d74a0ce4f5,.uuid-d204c2b3-9536-4f50-bec4-9ba436aa4b32,.uuid-e843fd83-8dee-4624-8bd4-e419726e031d,.uuid-e7b06165-f658-46cb-8e7d-46f12e30919d{isolation:isolate;}.uuid-e29aceec-edd7-4c50-87ad-43f86cb619e2{fill:#68113c;}.uuid-77577701-cc55-4f9c-8c0a-bdd533264101{fill:#f2acdd;}.uuid-54fa8df9-7eb7-4522-8761-a8226b2c37b0{fill:#981e77;}.uuid-20b73fe4-c807-42e1-9d7b-87da560209cb{fill:#1e1d1e;}.uuid-24cca96d-7866-4dc6-b1a1-85976bff4066{fill:#ba27a9;}.uuid-5a07430d-2766-4b76-90ae-04f376afc753{fill:#c65296;}.uuid-dc125f9a-dda1-4739-8990-5a570d4920f6{fill:#c32966;}.uuid-8b0e5155-3613-4396-9855-0e5757b157bc{fill:#d22eb7;}.uuid-88f29c24-9bf0-4bad-b199-9fd552f664f2{fill:#b72987;}.uuid-edb03287-41c7-415b-a832-90c3b46e4257{fill:#897381;}.uuid-545e6e0e-790f-4e9c-b6b9-6304c5de3bab{fill:#e943ef;}.uuid-371af6c6-dc73-4fc4-9188-3e066928cc27{fill:#dd36dc;}.uuid-d204c2b3-9536-4f50-bec4-9ba436aa4b32{opacity:.3;}.uuid-d204c2b3-9536-4f50-bec4-9ba436aa4b32,.uuid-e843fd83-8dee-4624-8bd4-e419726e031d{fill:#ea517a;mix-blend-mode:multiply;}.uuid-e843fd83-8dee-4624-8bd4-e419726e031d,.uuid-e7b06165-f658-46cb-8e7d-46f12e30919d{opacity:.5;}.uuid-c840a07d-cba5-442b-b893-75c698948f36{fill:#410715;}
</style>
<linearGradient id="flagGradient" x1="0" x2="181.17" y1="42.99" y2="42.99" gradientUnits="userSpaceOnUse">
<stop offset="0" stop-color="#ea339a"/>
<stop offset=".51" stop-color="#8c1b4e"/>
<stop offset="1" stop-color="#ff009a"/>
</linearGradient>
<linearGradient id="line1Gradient" x1="178.94" x2="283.18" y1="29.52" y2="29.52" gradientUnits="userSpaceOnUse">
<stop offset="0" stop-color="#ea339a"/>
<stop offset=".51" stop-color="#8c1b4e"/>
<stop offset="1" stop-color="#ff009a"/>
</linearGradient>
<linearGradient id="line2Gradient" x1="178.52" x2="322.67" y1="50.49" y2="50.49" gradientUnits="userSpaceOnUse">
<stop offset="0" stop-color="#ea339a"/>
<stop offset=".51" stop-color="#8c1b4e"/>
<stop offset="1" stop-color="#ff009a"/>
</linearGradient>
<clipPath id="uuid-31b3651b-092e-4e2f-8b94-94e18bbd735b"><path class="uuid-09bc8e88-163e-4354-843a-d76ed2197a88" d="M331.2,28.6c6.33,3.12,12.17,6.44,17.37,9.8,2.18-5.3,1.61-11.18-1.12-16.09-1.95-3.51-5.02-6.53-8.98-8.48-9.51-4.68-20.7-1.53-25.61,6.98,5.83,2.06,12.03,4.65,18.36,7.76l-.02.02Z"/></clipPath>
</defs>
<g id="flagGroup">
<path class="flag" d="M181.17,69.8c-60.39-19.3-120.78,19.3-181.17,0V16.19c60.39,19.3,120.78-19.3,181.17,0,0,17.87,0,35.74,0,53.6Z"/>
<text class="text" x="10" y="48">WELCOME</text>
<path class="line1" d="M283.18,28.23c-34.73-2.5-69.47,6.02-104.2,3.53-.01-.32-.03-.64-.04-.96,34.73,2.5,69.47-6.02,104.2-3.53.01.32.03.64.04.96Z"/>
<path class="line2" d="M322.64,47.87c-48.04-2.87-96.08,7.1-144.11,4.23.01.34.02.67.03,1.01,48.04,2.87,96.08-7.1,144.11-4.23-.01-.34-.02-.67-.03-1.01Z"/>
</g>
<g id="uuid-7c56c6c8-1861-41f7-9966-472a9d3b04cf"><g class="uuid-c97b5954-5211-4868-b90b-25d74a0ce4f5"><g id="uuid-47ed5a86-d3b5-4469-ae01-bea5ca592655"><g id="uuid-883ee2ff-1c43-4e71-8c60-18c66b0c0a68"><g id="uuid-485dc9b0-129c-48f2-80b8-1c25181fc266"><path class="uuid-0594d1ab-fe0d-4b2a-984f-05721679151e" d="M322.38,4.96c-.53-2.15.79-4.32,2.95-4.85,2.15-.53,4.32.79,4.85,2.95.48,2-.61,3.99-2.48,4.69l1.17,4.79-1.14.28-1.17-4.82c-1.92.12-3.69-1.12-4.16-3.06l-.02.02Z"/><path class="uuid-77577701-cc55-4f9c-8c0a-bdd533264101" d="M348.07,39.51c-2.56,5.19-7.33,8.6-12.77,9.76-4.32.94-9.04.44-13.42-1.71-6.87-3.38-11.05-9.98-11.43-16.8-.16-2.99.41-6.02,1.81-8.85.16-.31.31-.61.48-.9,4.86-8.64,16.15-11.85,25.7-7.14,3.96,1.95,7.03,4.96,8.98,8.48,2.93,5.24,3.38,11.6.64,17.18Z"/><path class="uuid-d204c2b3-9536-4f50-bec4-9ba436aa4b32" d="M348.07,39.51c-2.56,5.19-7.33,8.6-12.77,9.76l-24.85-18.52c-.16-2.99.41-6.02,1.81-8.85.16-.31.31-.61.48-.9,2.14.55,4.58,1.26,7.4,2.17,16.74,5.38,24.29,1.78,27.29-.83,2.93,5.24,3.38,11.6.64,17.18h-.02Z"/><path class="uuid-0594d1ab-fe0d-4b2a-984f-05721679151e" d="M371.51,65.42c-3.73,7.56-25.72-.87-51.71-13.66-17.91-8.81-33.03-17.38-39.48-24.32-2.9-3.13-4.05-5.94-2.9-8.29,3.73-7.56,27.79-3.34,53.78,9.45,14.12,6.94,25.89,14.98,33.11,22.07,6.06,5.97,8.9,11.29,7.2,14.75Z"/><path class="uuid-371af6c6-dc73-4fc4-9188-3e066928cc27" d="M362.97,61.94c-.51,1.03-1.76,1.47-2.79.95-1.03-.51-1.47-1.76-.95-2.79.51-1.03,1.76-1.47,2.79-.95,1.03.51,1.47,1.76.95,2.79Z"/><path class="uuid-371af6c6-dc73-4fc4-9188-3e066928cc27" d="M285.28,23.73c-.51,1.03-1.76,1.47-2.79.95s-1.47-1.76-.95-2.79,1.76-1.47,2.79-.95,1.47,1.76.95,2.79Z"/><path class="uuid-371af6c6-dc73-4fc4-9188-3e066928cc27" d="M323.75,48.47c-.51,1.03-1.76,1.47-2.79.95s-1.47-1.76-.95-2.79c.51-1.03,1.76-1.47,2.79-.95,1.03.51,1.47,1.76.95,2.79Z"/><g class="uuid-7d9ed2ad-8880-4645-b109-c3a633b088ac"><path class="uuid-20b73fe4-c807-42e1-9d7b-87da560209cb" d="M333.49,16.06l.06.03h.06c.65.41,1.28.94,1.95,1.29.09.08.11.09.22.16.03.02.08.02.09.03.16.11.31.22.47.31,0,0,.02.03.03.03.16.11.31.22.47.31,0,.09.02.05.06.06h.03s.03.03.06.03c.95.67,2,1.28,2.93,1.98.5.37.06.41-.2.61s-.55.58-.84.81c-.45.36-1.01.7-1.61.55-.33.83-.7,1.62-1.06,2.42-.09.2-.25.75-.37.89-.06.08-.17.08-.23.11-.02,0,.02.11-.06,0-.19-.22-.44-.55-.33-.84l-.53-2.04.72-1.32s.05-.09.06-.12l.09-.19s.06-.03.09-.03c.06,0,.11-.02.16-.03.58-.17,1.15-.31,1.73-.44.09-.02.06.05.06.11,0,.11-.05.23-.06.33-.03.12-.23.84-.19.89.23.02.59-.05.79-.19.03-.03.14-.17.19-.19.2-.11.2-.08.41-.25.11-.09.23-.11.28-.14s.02-.11.03-.14c0-.02.08-.03.12-.06.09-.08.25-.23.25-.36,0-.06-.05-.06-.06-.08,0-.02,0-.05-.03-.08-.17-.2-1.39-.97-1.65-1.03-.25-.06-.39.09-.5.3,0-.02-.05-.08-.06-.09-.08-.28.26-.31-.03-.56,0,0-.05-.02-.06-.03-.12-.11-.22-.12-.31-.19,0,0,0-.05-.02-.06-.14-.09-.26-.2-.42-.25-.33-.34-.41-.28-.69.03-.25.28-.47.58-.76.83-.06,0-.11.05-.12.09-.03.02-.06.05-.09.06-.02.02-.08.02-.09.03v.06c-.14.06-.3.09-.44.16-.34.08-.67.02-.98-.14-.11-.06-.2-.16-.31-.2-.02-.03-.05-.05-.06-.06-.06-.09-.12-.17-.19-.25,0-.08-.11-.22-.12-.28,0-.03-.03-.26-.03-.28,0-.16.14-.86.2-1.01.06-.19.28-.5.39-.69.08-.11.36-.48.36-.58,0-.11-.09-.3.12-.28l.03-.02ZM332.95,17.58c-.06.12-.08.16-.12.28,0,.02-.06,0-.06.12,0,.3.5.48.72.59,0,.03-.02.05.02.09.08.08.36.19.47.25.2.11.34.3.64.25.09,0,.08-.08.11-.09.2-.16.31-.28.47-.47.28-.34.51-.44.11-.83-.08-.08-.19-.12-.26-.19-.28-.22-.55-.44-.86-.61-.14-.09-.47-.31-.62-.25-.14.06-.51.67-.61.83l.02.02Z"/><path class="uuid-20b73fe4-c807-42e1-9d7b-87da560209cb" d="M333.56,16.64c.16,0,.58-.11.25-.23-.14-.05-.28.22-.25.23Z"/><path class="uuid-20b73fe4-c807-42e1-9d7b-87da560209cb" d="M339.95,20.52s-.19-.08-.22-.09v.37s.26-.2.22-.28Z"/><path class="uuid-dc125f9a-dda1-4739-8990-5a570d4920f6" d="M327.76,24.79c.72.55,1.48,1.06,2.17,1.62.03.03.08.06.09.11-.02,0-.08,0-.11-.03-.08-.03-.59-.41-.64-.36-.02.25.09.5.09.75l.95-.12c-.06-.09-.23-.12-.25-.25.06.03.12.08.17.12.02,0,0-.03,0-.03.14.06.17.25.22.37-.11.08.11.92.02.92l-.14-1.09-.87.16c0,.28-.02.56,0,.83,0,.08.06.16.06.22,0,.11-.23.59-.19.64.09,0,.17-.03.26-.03.03,0,.12-.02.11.03-.11.02-.23.05-.34.06-.03-.05-.12-.03-.17-.03-.16,0-.39.05-.55.06.12-.28.28-.56.28-.87,0-.2-.08-.2-.12-.34-.05-.12-.06-.31-.09-.45.23-.05.47-.08.69-.12,0-.06-.11-.03-.14-.03-.47.03-1.01.23-1.47.25h-.03c0-.09-.06-.19-.09-.26-.36-.76-.83-1.84-1.26-2.54,0-.06.09.02.11.03.33.2.65.39.98.56.12.03.23-.06.26-.19v.03Z"/><path class="uuid-204bb702-817c-4097-918c-e32465752a18" d="M329.24,21.49s-.03.08.06.06v.03c.05.16.53.95.64,1.14.03.05.03.09.11.09,0,0,.02.03.03.06l.03.03v.06c-.06.05-.05.08.03.06.36.98.86,1.79,1.34,2.71-.02.81.08,1.7,0,2.49-.05-.03-.06-.08-.08-.12-.2-.47-.78-1.7-.86-2.1,0-.09.03-.22.02-.33-.02-.25-.08-.5-.09-.75-.02-.23-.03-.47-.06-.69,0-.08.03-.22-.05-.25-.06-.02-.41.05-.51.06-.08,0-.14.08-.19-.03-.28-.9-.42-1.87-.69-2.77.11.02.19.16.25.25l.02-.02Z"/></g></g></g></g><path class="uuid-e7b06165-f658-46cb-8e7d-46f12e30919d" d="M341.72,23.02c-.95,1.93-5.13,1.84-9.34-.23-4.19-2.07-6.83-5.32-5.88-7.25s5.13-1.84,9.34.23c4.19,2.07,6.83,5.32,5.88,7.25Z"/><path class="uuid-e843fd83-8dee-4624-8bd4-e419726e031d" d="M371.51,65.42c-3.73,7.56-25.72-.87-51.71-13.66-17.91-8.81-33.03-17.38-39.48-24.32,13.78,8.06,37.33,20.61,59.73,26.72,16.51,4.5,22.49,1.2,24.24-3.49,6.06,5.97,8.9,11.29,7.2,14.75h.02Z"/><path class="uuid-e7b06165-f658-46cb-8e7d-46f12e30919d" d="M325.71,18.92c-.25.51-1.45.45-2.68-.16-1.23-.61-2.01-1.51-1.76-2.03.25-.51,1.45-.45,2.68.16,1.23.61,2.01,1.51,1.76,2.03Z"/><path class="uuid-0594d1ab-fe0d-4b2a-984f-05721679151e" d="M353.27,20.16c2.03-.9,2.93-3.27,2.03-5.3-.9-2.03-3.27-2.93-5.3-2.04-1.87.83-2.79,2.91-2.2,4.83l-4.5,2,.48,1.08,4.52-2.01c1.06,1.59,3.15,2.24,4.96,1.43l.02.02Z"/></g></g>
</svg>